<svg preserveAspectRatio="none" width="100%" height="100%" overflow="visible" style="display: block;" viewBox="0 0 21 21" fill="none" xmlns="http://www.w3.org/2000/svg">
<path id="Vector" d="M13.6579 20.5C15.1263 20.5 15.86 20.5 16.4653 20.3547C17.4092 20.1282 18.2721 19.645 18.9585 18.9585C19.645 18.2721 20.1282 17.4092 20.3547 16.4653C20.5 15.86 20.5 15.1263 20.5 13.6579M7.34211 20.5C5.87369 20.5 5.14001 20.5 4.53474 20.3547C3.5908 20.1282 2.7279 19.645 2.04147 18.9585C1.35504 18.2721 0.871828 17.4092 0.645269 16.4653C0.500006 15.86 0.500006 15.1263 0.500006 13.6579M7.34211 0.500006C5.87369 0.500006 5.14001 0.500006 4.53474 0.645269C3.5908 0.871828 2.7279 1.35504 2.04147 2.04147C1.35504 2.7279 0.871828 3.5908 0.645269 4.53474C0.500006 5.14001 0.500006 5.87474 0.500006 7.34211M13.6579 0.500006C15.1263 0.500006 15.86 0.500006 16.4653 0.645269C17.4092 0.871828 18.2721 1.35504 18.9585 2.04147C19.645 2.7279 20.1282 3.5908 20.3547 4.53474C20.5 5.14001 20.5 5.87474 20.5 7.34211M13.6579 7.86843C13.6579 7.0309 13.3252 6.22768 12.733 5.63546C12.1408 5.04324 11.3375 4.71053 10.5 4.71053C9.66248 4.71053 8.85926 5.04324 8.26704 5.63546C7.67482 6.22768 7.34211 7.0309 7.34211 7.86843C7.34211 8.70595 7.67482 9.50918 8.26704 10.1014C8.85926 10.6936 9.66248 11.0263 10.5 11.0263C11.3375 11.0263 12.1408 10.6936 12.733 10.1014C13.3252 9.50918 13.6579 8.70595 13.6579 7.86843Z" stroke="var(--stroke-0, #2E3033)" stroke-linecap="round" stroke-linejoin="round"/>
</svg>
